# xmcd CD database file
#
# Track frame offsets:
#	150
#	11905
#	26268
#	41563
#	54001
#	70831
#	84767
#	99940
#	115307
#	129444
#
# Disc length: 1963 seconds
#
# Revision: 1
# Processed by: cddbd v1.5.1PL0 Copyright (c) Steve Scherf et al.
# Submitted via: CDex 1.51
#
DISCID=6d07a90a
DTITLE=Arrowhead - Quiver
DYEAR=2004
DGENRE=Country
TTITLE0=Quiver
TTITLE1=Just One of Those Things
TTITLE2=Head Over Heels
TTITLE3=Lookout, Colorado
TTITLE4=Pictures of You
TTITLE5=Drinkin' Problem
TTITLE6=Without You
TTITLE7=Somedays Are Always Mondays
TTITLE8=In the Garden
TTITLE9=When Cowboys Didn't Dance
EXTD=YEAR: 2004
EXTT0=
EXTT1=
EXTT2=
EXTT3=
EXTT4=
EXTT5=
EXTT6=
EXTT7=
EXTT8=
EXTT9=
PLAYORDER=
